<svg width="545" height="265" viewBox="0 0 545 265" fill="none" xmlns="http://www.w3.org/2000/svg">
<path d="M14.5101 252.101L12.2118 250.583L12.4082 253.345L10.4808 253.34L10.6622 250.589L8.38415 252.142L7.40102 250.484L9.88082 249.251L7.40628 248.041L8.35414 246.383L10.649 247.907L10.4525 245.144L12.38 245.149L12.202 247.894L14.4766 246.347L15.4597 248.005L12.9799 249.239L15.458 250.442L14.5101 252.101Z" fill="#1C1A4A"/>
<path d="M25.8109 229.613L11.6417 226.326L13.8564 216.779L16.3264 217.352L14.8065 223.903L18.1828 224.687L19.5887 218.626L22.0586 219.199L20.6527 225.26L24.0359 226.044L25.5622 219.465L28.0321 220.038L25.8109 229.613Z" fill="#1C1A4A"/>
<path d="M31.0986 207.088L29.5578 212.009L15.6769 207.663L17.2304 202.701C17.6676 201.305 18.3218 200.19 19.1931 199.357C20.0599 198.522 21.0955 197.995 22.3001 197.777C23.506 197.554 24.8297 197.668 26.2711 198.12C27.717 198.572 28.874 199.235 29.7421 200.107C30.6115 200.975 31.165 202.004 31.4024 203.194C31.6413 204.381 31.54 205.679 31.0986 207.088ZM27.9622 208.287L28.5458 206.423C28.8175 205.555 28.8923 204.778 28.7704 204.089C28.6454 203.395 28.3042 202.797 27.747 202.295C27.1866 201.788 26.389 201.372 25.3543 201.048C24.3286 200.726 23.443 200.615 22.6975 200.714C21.9535 200.809 21.3351 201.104 20.8425 201.6C20.3499 202.095 19.9678 202.777 19.6962 203.645L19.1104 205.515L27.9622 208.287Z" fill="#1C1A4A"/>
<path d="M25.7496 178.484L26.9048 175.634L35.659 179.182C36.642 179.581 37.4069 180.164 37.9538 180.932C38.5025 181.696 38.8132 182.581 38.886 183.586C38.9544 184.59 38.7627 185.649 38.3109 186.764C37.8574 187.883 37.2567 188.778 36.5089 189.451C35.7567 190.122 34.9177 190.541 33.992 190.707C33.0663 190.873 32.112 190.757 31.129 190.359L22.3747 186.811L23.5299 183.961L32.0407 187.41C32.5541 187.618 33.0558 187.691 33.5458 187.629C34.0376 187.563 34.4812 187.37 34.8766 187.05C35.2719 186.73 35.5808 186.296 35.8031 185.747C36.0272 185.194 36.1079 184.667 36.0451 184.167C35.9841 183.662 35.7993 183.217 35.4907 182.831C35.1839 182.441 34.7737 182.142 34.2603 181.934L25.7496 178.484Z" fill="#1C1A4A"/>
<path d="M41.0304 157.41L39.6306 160.188C39.2457 160.058 38.8742 160.001 38.5163 160.017C38.1542 160.03 37.812 160.11 37.4896 160.255C37.1673 160.4 36.8724 160.607 36.6048 160.875C36.3393 161.139 36.1128 161.457 35.9253 161.829C35.5865 162.501 35.4585 163.171 35.5411 163.838C35.6196 164.503 35.9067 165.133 36.4025 165.727C36.894 166.32 37.5901 166.843 38.4908 167.297C39.4168 167.763 40.2641 168.018 41.0326 168.06C41.8033 168.099 42.475 167.949 43.0477 167.612C43.6205 167.275 44.072 166.779 44.4022 166.124C44.5876 165.756 44.7104 165.391 44.7708 165.029C44.8334 164.663 44.8334 164.31 44.7709 163.971C44.7042 163.63 44.576 163.311 44.3863 163.014C44.1988 162.713 43.9477 162.443 43.6329 162.205L45.0453 159.433C45.6053 159.805 46.0898 160.275 46.4989 160.842C46.9058 161.402 47.2056 162.033 47.3983 162.734C47.5888 163.429 47.6437 164.173 47.563 164.964C47.4801 165.75 47.2288 166.559 46.8091 167.392C46.2254 168.55 45.4412 169.454 44.4567 170.104C43.4743 170.748 42.3531 171.085 41.0931 171.113C39.8353 171.136 38.5002 170.793 37.0879 170.081C35.6714 169.367 34.6005 168.494 33.8752 167.46C33.15 166.427 32.7574 165.322 32.6975 164.147C32.6333 162.969 32.8888 161.81 33.4641 160.668C33.8433 159.915 34.3005 159.271 34.8358 158.735C35.3732 158.194 35.9705 157.777 36.6279 157.483C37.281 157.186 37.9781 157.028 38.7193 157.009C39.4626 156.986 40.233 157.12 41.0304 157.41Z" fill="#1C1A4A"/>
<path d="M54.192 153.184L52.4856 156.003L42.6419 144.176L44.6939 140.785L59.734 144.027L58.0276 146.846L46.5409 144.153L46.4821 144.25L54.192 153.184ZM49.1941 150.399L53.2247 143.74L55.2784 144.983L51.2478 151.642L49.1941 150.399Z" fill="#1C1A4A"/>
<path d="M52.573 132.3L50.5061 130.831L57.4251 121.093L59.492 122.562L56.9128 126.192L66.7032 133.148L64.9426 135.626L55.1522 128.67L52.573 132.3Z" fill="#1C1A4A"/>
<path d="M63.8891 111.981L75.2274 121.092L73.301 123.49L61.9628 114.378L63.8891 111.981Z" fill="#1C1A4A"/>
<path d="M84.0357 99.6052C85.2047 100.677 85.996 101.811 86.4095 103.006C86.8263 104.198 86.9022 105.373 86.6372 106.53C86.3719 107.681 85.8056 108.729 84.9383 109.675C84.0645 110.628 83.0641 111.284 81.9369 111.644C80.8097 112.005 79.6345 112.029 78.4112 111.716C77.188 111.404 75.9936 110.713 74.8281 109.644C73.6592 108.572 72.8663 107.44 72.4496 106.248C72.0328 105.057 71.9571 103.885 72.2223 102.734C72.4841 101.58 73.0519 100.527 73.9256 99.5745C74.7929 98.6288 75.7902 97.9758 76.9174 97.6155C78.0443 97.2484 79.2193 97.2211 80.4426 97.5336C81.6691 97.8425 82.8668 98.5331 84.0357 99.6052ZM81.9283 101.903C81.1711 101.208 80.4285 100.736 79.7005 100.486C78.9758 100.233 78.2918 100.187 77.6487 100.349C77.0056 100.51 76.4328 100.865 75.9303 101.413C75.4278 101.961 75.1237 102.562 75.018 103.217C74.9122 103.872 75.0153 104.551 75.3272 105.254C75.6423 105.955 76.1784 106.652 76.9356 107.346C77.6928 108.041 78.4338 108.515 79.1585 108.769C79.8865 109.019 80.572 109.063 81.2152 108.901C81.8583 108.739 82.4311 108.384 82.9336 107.836C83.436 107.289 83.7402 106.687 83.8459 106.033C83.9517 105.378 83.847 104.7 83.5319 104C83.22 103.297 82.6855 102.597 81.9283 101.903Z" fill="#1C1A4A"/>
<path d="M94.0816 79.5664L103.942 90.2596L101.989 92.0603L91.131 89.6198L91.0527 89.6921L97.2587 96.4223L94.9979 98.507L85.1376 87.8138L87.1217 85.9843L97.9385 88.4532L98.0325 88.3665L91.8313 81.6415L94.0816 79.5664Z" fill="#1C1A4A"/>
<path d="M117.083 70.929L115.606 68.6044L114.656 71.206L112.899 70.4134L114.189 67.9767L111.475 68.463L111.256 66.5481L114.023 66.4361L112.259 64.3208L113.802 63.1943L115.273 65.5231L116.223 62.9215L117.98 63.7141L116.696 66.1466L119.404 65.6644L119.624 67.5794L116.856 67.6914L118.626 69.8025L117.083 70.929Z" fill="#1C1A4A"/>
<path d="M141.592 49.803C141.258 49.3342 140.825 49.0693 140.294 49.0083C139.762 48.9473 139.176 49.1005 138.535 49.4677C138.1 49.7173 137.767 49.9896 137.538 50.2847C137.306 50.5757 137.172 50.874 137.134 51.1794C137.1 51.4825 137.161 51.7696 137.317 52.0407C137.438 52.2714 137.598 52.4415 137.797 52.551C138.001 52.6583 138.23 52.7205 138.486 52.7378C138.739 52.751 139.012 52.7333 139.306 52.6848C139.598 52.6322 139.899 52.5578 140.21 52.4617L141.499 52.083C142.12 51.8908 142.72 51.7655 143.298 51.7072C143.875 51.6489 144.419 51.6732 144.927 51.78C145.436 51.8869 145.899 52.0907 146.317 52.3914C146.739 52.6898 147.103 53.1007 147.409 53.6242C147.847 54.3989 148.034 55.1815 147.968 55.9721C147.905 56.7562 147.597 57.5139 147.045 58.2452C146.494 58.97 145.705 59.6267 144.678 60.2153C143.659 60.7991 142.683 61.1516 141.748 61.2725C140.817 61.3912 139.965 61.2657 139.191 60.8961C138.419 60.52 137.762 59.8839 137.221 58.9878L139.803 57.5081C140.074 57.9148 140.398 58.1986 140.774 58.3597C141.152 58.5142 141.563 58.5598 142.007 58.4964C142.452 58.4265 142.905 58.2598 143.365 57.9961C143.817 57.7371 144.172 57.4465 144.429 57.1244C144.691 56.7999 144.847 56.4676 144.898 56.1275C144.948 55.7874 144.887 55.4653 144.712 55.1613C144.55 54.8779 144.329 54.6879 144.05 54.5913C143.775 54.4924 143.439 54.467 143.04 54.5151C142.646 54.5608 142.188 54.66 141.664 54.8128L140.092 55.2552C138.88 55.6062 137.808 55.683 136.876 55.4857C135.944 55.2884 135.213 54.7223 134.683 53.7874C134.241 53.0257 134.062 52.2416 134.145 51.4351C134.233 50.6263 134.546 49.8545 135.086 49.1197C135.625 48.3849 136.355 47.7539 137.275 47.2265C138.212 46.6897 139.121 46.3814 140.003 46.3016C140.889 46.2194 141.691 46.352 142.409 46.6994C143.126 47.0467 143.706 47.5928 144.15 48.3375L141.592 49.803Z" fill="#1C1A4A"/>
<path d="M148.873 40.7347L151.982 39.2522L157.672 43.4792L157.8 43.4181L158.098 36.3362L161.208 34.8538L160.466 45.6251L162.679 50.2666L159.922 51.5809L157.709 46.9394L148.873 40.7347Z" fill="#1C1A4A"/>
<path d="M177.064 32.5902C176.805 32.0765 176.416 31.7495 175.9 31.6092C175.384 31.4689 174.781 31.5321 174.092 31.7988C173.624 31.98 173.255 32.1993 172.984 32.4565C172.711 32.7094 172.533 32.9839 172.45 33.2802C172.371 33.5747 172.388 33.8677 172.501 34.1592C172.586 34.4054 172.719 34.5977 172.899 34.736C173.084 34.8726 173.301 34.9687 173.551 35.0242C173.8 35.0753 174.073 35.099 174.371 35.0953C174.667 35.0872 174.976 35.059 175.298 35.0106L176.629 34.8302C177.272 34.7336 177.884 34.7 178.464 34.7293C179.044 34.7586 179.577 34.8643 180.064 35.0465C180.551 35.2286 180.978 35.4998 181.346 35.86C181.719 36.2185 182.016 36.6795 182.24 37.243C182.557 38.0748 182.623 38.8766 182.44 39.6483C182.259 40.4139 181.84 41.1167 181.184 41.7565C180.531 42.3903 179.652 42.9208 178.549 43.3482C177.454 43.7722 176.435 43.9736 175.493 43.9526C174.555 43.9299 173.731 43.6776 173.021 43.1957C172.315 42.7078 171.761 41.9802 171.361 41.0129L174.136 39.9385C174.343 40.3813 174.621 40.7106 174.968 40.9264C175.319 41.136 175.718 41.2429 176.166 41.247C176.617 41.245 177.09 41.1483 177.585 40.9568C178.07 40.7688 178.465 40.5349 178.768 40.2551C179.075 39.9736 179.279 39.6686 179.381 39.34C179.482 39.0114 179.469 38.6837 179.343 38.3569C179.225 38.0523 179.035 37.8312 178.774 37.6938C178.517 37.5546 178.188 37.4789 177.787 37.4665C177.391 37.4524 176.922 37.4815 176.381 37.5537L174.761 37.7547C173.51 37.9193 172.438 37.8339 171.547 37.4987C170.655 37.1634 170.018 36.4938 169.634 35.4898C169.312 34.6702 169.253 33.8681 169.457 33.0834C169.665 32.2969 170.091 31.5811 170.735 30.9358C171.379 30.2905 172.195 29.7764 173.184 29.3935C174.191 29.0038 175.136 28.8358 176.02 28.8896C176.908 28.9416 177.681 29.1934 178.338 29.6447C178.995 30.0961 179.487 30.7232 179.813 31.5261L177.064 32.5902Z" fill="#1C1A4A"/>
<path d="M186.589 27.1535L185.849 24.7282L197.276 21.2445L198.015 23.6698L193.756 24.9684L197.258 36.4564L194.35 37.3428L190.848 25.8549L186.589 27.1535Z" fill="#1C1A4A"/>
<path d="M208.22 33.1364L204.982 18.956L214.537 16.7741L215.101 19.246L208.544 20.7433L209.316 24.1222L215.381 22.7372L215.946 25.2091L209.88 26.5941L210.653 29.98L217.238 28.4764L217.802 30.9483L208.22 33.1364Z" fill="#1C1A4A"/>
<path d="M223.132 14.7832L226.886 14.2432L232.243 23.3461L232.411 23.3218L234.985 13.0784L238.739 12.5384L240.81 26.9357L237.857 27.3604L236.509 17.9895L236.39 18.0067L234.002 27.8432L231.991 28.1324L226.922 19.3325L226.803 19.3497L228.156 28.7558L225.203 29.1805L223.132 14.7832Z" fill="#1C1A4A"/>
<path d="M261.864 18.8914L261.98 16.1395L259.714 17.732L258.724 16.0776L261.175 14.8149L258.67 13.6635L259.584 11.9664L261.919 13.4555L261.68 10.7116L263.59 10.6688L263.467 13.4208L265.733 11.8283L266.722 13.4827L264.278 14.7452L266.776 15.8968L265.863 17.5939L263.527 16.1048L263.774 18.8485L261.864 18.8914Z" fill="#1C1A4A"/>
<path d="M298.794 17.1594L295.697 16.8741C295.677 16.4681 295.594 16.1015 295.449 15.7743C295.303 15.4423 295.104 15.1529 294.851 14.9061C294.598 14.6594 294.298 14.4605 293.95 14.3097C293.607 14.1592 293.229 14.0649 292.814 14.0267C292.064 13.9576 291.394 14.0837 290.803 14.405C290.213 14.7215 289.732 15.2193 289.36 15.8983C288.989 16.5726 288.757 17.4119 288.665 18.4161C288.57 19.4487 288.643 20.3303 288.885 21.0611C289.131 21.7923 289.516 22.3626 290.04 22.7722C290.563 23.1818 291.19 23.4202 291.921 23.4875C292.331 23.5253 292.716 23.506 293.075 23.4297C293.438 23.3538 293.766 23.2248 294.059 23.0425C294.352 22.8555 294.602 22.6194 294.809 22.3341C295.02 22.0493 295.179 21.7169 295.286 21.3368L298.382 21.6362C298.241 22.2936 297.981 22.9164 297.604 23.5045C297.232 24.0883 296.754 24.5983 296.172 25.0345C295.595 25.4663 294.923 25.7896 294.157 26.0043C293.396 26.2148 292.551 26.2772 291.622 26.1917C290.33 26.0727 289.202 25.674 288.237 24.9955C287.277 24.3175 286.554 23.3974 286.067 22.2351C285.584 21.0733 285.415 19.705 285.56 18.1302C285.706 16.5507 286.126 15.2343 286.823 14.181C287.519 13.1277 288.403 12.358 289.474 11.8719C290.547 11.381 291.719 11.1942 292.992 11.3115C293.832 11.3887 294.599 11.5783 295.294 11.88C295.993 12.1822 296.601 12.5852 297.115 13.0891C297.63 13.5882 298.032 14.1792 298.321 14.862C298.615 15.5452 298.773 16.311 298.794 17.1594Z" fill="#1C1A4A"/>
<path d="M307.934 27.8321L304.687 27.2699L312.116 13.7942L316.021 14.4703L318.48 29.6579L315.233 29.0957L313.557 17.4171L313.445 17.3977L307.934 27.8321ZM308.706 22.1634L316.376 23.4913L315.967 25.8567L308.297 24.5288L308.706 22.1634Z" fill="#1C1A4A"/>
<path d="M339.954 19.8881L336.341 33.9777L333.768 33.3179L329.912 22.8781L329.809 22.8516L327.535 31.7196L324.556 30.9557L328.169 16.8661L330.783 17.5365L334.592 27.957L334.716 27.9888L336.989 19.1277L339.954 19.8881Z" fill="#1C1A4A"/>
<path d="M359.409 34.8388L360.557 32.3351L357.857 32.9525L357.567 31.047L360.313 30.8047L358.429 28.7916L359.917 27.566L361.516 29.8275L362.332 27.1969L364.116 27.8794L362.962 30.3807L365.662 29.7632L365.952 31.6687L363.212 31.9135L365.089 33.9242L363.601 35.1497L362.003 32.8882L361.193 35.5213L359.409 34.8388Z" fill="#1C1A4A"/>
<path d="M385.38 36.9308L388.734 38.7013L387.714 49.2138L387.865 49.2934L395.969 42.5209L399.323 44.2915L392.533 57.1546L389.895 55.7621L394.315 47.3897L394.208 47.3333L386.493 53.8856L384.696 52.9373L385.771 42.8391L385.664 42.7827L381.228 51.1865L378.59 49.7939L385.38 36.9308Z" fill="#1C1A4A"/>
<path d="M401.352 62.3931L398.581 60.6108L410.671 51.0919L414.004 53.2352L410.355 68.1817L407.583 66.3994L410.588 54.9901L410.492 54.9286L401.352 62.3931ZM404.271 57.4727L410.819 61.6826L409.52 63.7018L402.973 59.4919L404.271 57.4727Z" fill="#1C1A4A"/>
<path d="M415.41 72.1168L424.2 60.5284L426.651 62.387L422.774 67.4965L422.927 67.6124L430.974 65.6664L433.91 67.8942L425.674 69.8207L425.17 79.5212L422.239 77.2977L422.679 70.1253L420.358 70.6822L417.86 73.9754L415.41 72.1168Z" fill="#1C1A4A"/>
<path d="M430.82 83.9758L440.438 73.0639L447.791 79.5447L446.114 81.4468L441.068 76.9995L438.777 79.5996L443.444 83.7134L441.768 85.6156L437.1 81.5017L434.804 84.1071L439.871 88.5732L438.194 90.4753L430.82 83.9758Z" fill="#1C1A4A"/>
<path d="M457.959 101.45L460.108 99.7276L457.418 99.068L458.014 97.2349L460.577 98.2507L459.797 95.6063L461.676 95.1786L462.09 97.917L464 95.9322L465.288 97.3428L463.134 99.0602L465.824 99.7198L465.229 101.553L462.67 100.542L463.446 103.181L461.566 103.609L461.152 100.871L459.247 102.861L457.959 101.45Z" fill="#1C1A4A"/>
<path d="M483.571 128.558L481.749 126.037C482.042 125.756 482.264 125.452 482.414 125.127C482.569 124.799 482.656 124.459 482.675 124.106C482.695 123.753 482.647 123.396 482.532 123.035C482.42 122.678 482.242 122.33 481.998 121.993C481.557 121.383 481.021 120.961 480.39 120.727C479.764 120.491 479.073 120.456 478.317 120.622C477.565 120.786 476.78 121.164 475.963 121.754C475.122 122.362 474.506 122.997 474.115 123.66C473.726 124.326 473.55 124.991 473.585 125.655C473.621 126.319 473.854 126.948 474.284 127.543C474.525 127.876 474.793 128.153 475.086 128.374C475.382 128.598 475.695 128.76 476.025 128.86C476.359 128.958 476.701 128.991 477.052 128.959C477.406 128.932 477.761 128.833 478.117 128.663L479.928 131.192C479.34 131.518 478.7 131.732 478.009 131.835C477.324 131.938 476.626 131.914 475.914 131.762C475.209 131.612 474.524 131.318 473.858 130.882C473.199 130.447 472.597 129.852 472.05 129.096C471.29 128.044 470.848 126.932 470.725 125.759C470.605 124.591 470.822 123.44 471.377 122.309C471.935 121.181 472.854 120.154 474.136 119.228C475.422 118.298 476.69 117.75 477.941 117.581C479.192 117.413 480.354 117.573 481.425 118.06C482.5 118.545 483.412 119.306 484.161 120.342C484.654 121.025 485.016 121.727 485.246 122.449C485.478 123.175 485.574 123.897 485.533 124.617C485.496 125.333 485.315 126.024 484.991 126.691C484.669 127.362 484.196 127.984 483.571 128.558Z" fill="#1C1A4A"/>
<path d="M480.249 140.651L492.693 133.12L494.285 135.751L489.151 138.858L492.384 144.199L497.518 141.092L499.107 143.717L486.663 151.248L485.074 148.623L490.215 145.512L486.982 140.171L481.842 143.282L480.249 140.651Z" fill="#1C1A4A"/>
<path d="M491.983 159.5L490.507 156.554L505.76 154.524L507.536 158.067L496.78 169.068L495.303 166.122L503.702 157.836L503.651 157.735L491.983 159.5ZM497.002 156.754L500.491 163.712L498.344 164.788L494.856 157.829L497.002 156.754Z" fill="#1C1A4A"/>
<path d="M517.329 181.119L503.848 186.583L502.851 184.121L508.958 174.818L508.918 174.719L500.434 178.158L499.278 175.308L512.759 169.844L513.772 172.345L507.653 181.6L507.701 181.718L516.179 178.282L517.329 181.119Z" fill="#1C1A4A"/>
<path d="M519.208 200.785C519.508 200.587 519.758 200.362 519.957 200.111C520.161 199.859 520.312 199.581 520.411 199.277C520.515 198.976 520.565 198.653 520.561 198.307C520.558 197.966 520.497 197.605 520.378 197.226C520.156 196.516 519.785 195.948 519.264 195.52C518.745 195.098 518.102 194.843 517.335 194.755C516.573 194.666 515.708 194.773 514.741 195.076C513.774 195.379 512.998 195.783 512.412 196.289C511.826 196.795 511.439 197.373 511.251 198.022C511.066 198.67 511.089 199.36 511.318 200.092C511.526 200.756 511.821 201.287 512.203 201.683C512.591 202.083 513.041 202.339 513.553 202.451C514.066 202.569 514.618 202.535 515.21 202.349L515.309 202.973L514.188 199.395L516.398 198.703L518.217 204.511L516.468 205.059C515.248 205.441 514.119 205.511 513.081 205.271C512.048 205.029 511.152 204.53 510.395 203.775C509.642 203.018 509.083 202.057 508.718 200.892C508.311 199.59 508.24 198.357 508.505 197.192C508.775 196.026 509.355 195.001 510.244 194.118C511.139 193.237 512.319 192.567 513.783 192.109C514.908 191.757 515.962 191.605 516.945 191.655C517.934 191.707 518.828 191.933 519.628 192.333C520.428 192.732 521.111 193.275 521.678 193.961C522.245 194.647 522.672 195.448 522.959 196.365C523.206 197.152 523.32 197.92 523.301 198.67C523.288 199.418 523.155 200.119 522.903 200.774C522.653 201.433 522.294 202.019 521.825 202.533C521.36 203.046 520.799 203.457 520.142 203.767L519.208 200.785Z" fill="#1C1A4A"/>
<path d="M512.883 214.366L527.053 211.079L529.267 220.627L526.798 221.2L525.278 214.648L521.901 215.431L523.307 221.492L520.837 222.065L519.432 216.004L516.048 216.789L517.575 223.368L515.105 223.941L512.883 214.366Z" fill="#1C1A4A"/>
<path d="M525 244.663L527.75 244.511L525.945 242.41L527.495 241.265L528.99 243.582L529.892 240.977L531.67 241.721L530.415 244.19L533.123 243.685L533.351 245.582L530.6 245.727L532.405 247.828L530.855 248.973L529.361 246.663L528.457 249.261L526.679 248.517L527.935 246.048L525.228 246.56L525 244.663Z" fill="#1C1A4A"/>
</svg>
